<svg width="20" height="20" viewBox="0 0 20 20" fill="none" xmlns="http://www.w3.org/2000/svg">
<path d="M9.99995 12.7083C9.91783 12.7087 9.83646 12.6927 9.76062 12.6612C9.68477 12.6297 9.61598 12.5834 9.55828 12.525L5.39161 8.35833C5.30851 8.23675 5.27101 8.08973 5.28572 7.9432C5.30044 7.79667 5.36642 7.66004 5.47204 7.55741C5.57766 7.45478 5.71613 7.39274 5.86302 7.38224C6.00992 7.37174 6.1558 7.41344 6.27495 7.5L9.99995 11.2L13.7249 7.5C13.8424 7.42384 13.982 7.38933 14.1215 7.40198C14.2609 7.41464 14.392 7.47373 14.4938 7.5698C14.5957 7.66587 14.6623 7.79334 14.6831 7.93179C14.7038 8.07023 14.6775 8.21164 14.6083 8.33333L10.4416 12.5C10.3861 12.563 10.3182 12.6139 10.2423 12.6498C10.1663 12.6856 10.0839 12.7055 9.99995 12.7083Z" fill="#2D3542"/>
</svg>
