<svg width="24" height="24" viewBox="0 0 24 24" fill="none" xmlns="http://www.w3.org/2000/svg">
<path d="M20.25 9.75977C20.2499 7.2753 18.3462 4.75012 15.7002 4.75C14.1622 4.75 13.1637 5.50998 12.5684 6.2002C12.4259 6.36538 12.2181 6.45996 12 6.45996C11.7819 6.45996 11.5741 6.36538 11.4316 6.2002C10.8363 5.50998 9.83782 4.75 8.2998 4.75C5.65378 4.75012 3.75012 7.2753 3.75 9.75977C3.75 10.9681 4.2249 12.1664 5.00391 13.3135C5.78235 14.4596 6.83673 15.5134 7.91992 16.415C9.00006 17.3141 10.0884 18.0455 10.917 18.5518C11.3306 18.8045 11.6765 18.9991 11.9199 19.1289C11.9479 19.1438 11.9752 19.1569 12 19.1699C12.0248 19.1569 12.0521 19.1438 12.0801 19.1289C12.3235 18.9991 12.6694 18.8045 13.083 18.5518C13.9116 18.0455 14.9999 17.3141 16.0801 16.415C17.1633 15.5134 18.2176 14.4596 18.9961 13.3135C19.7751 12.1664 20.25 10.9681 20.25 9.75977ZM21.75 9.75977C21.75 11.3663 21.1197 12.8556 20.2363 14.1562C19.3523 15.4578 18.1868 16.6128 17.04 17.5674C15.8904 18.5243 14.7391 19.2981 13.8652 19.832C13.4278 20.0993 13.0558 20.3088 12.7852 20.4531C12.6507 20.5248 12.5376 20.5827 12.4512 20.624C12.4089 20.6442 12.3657 20.6637 12.3271 20.6797C12.3088 20.6873 12.2819 20.698 12.252 20.708C12.2371 20.713 12.2124 20.7203 12.1826 20.7275C12.1637 20.7321 12.0923 20.75 12 20.75C11.9077 20.75 11.8363 20.7321 11.8174 20.7275C11.7876 20.7203 11.7629 20.713 11.748 20.708C11.7181 20.698 11.6912 20.6873 11.6729 20.6797C11.6343 20.6637 11.5911 20.6442 11.5488 20.624C11.4624 20.5827 11.3493 20.5248 11.2148 20.4531C10.9442 20.3088 10.5722 20.0993 10.1348 19.832C9.26091 19.2981 8.1096 18.5243 6.95996 17.5674C5.81325 16.6128 4.64766 15.4578 3.76367 14.1562C2.88033 12.8556 2.25 11.3663 2.25 9.75977C2.25012 6.68448 4.60622 3.25012 8.2998 3.25C9.96524 3.25 11.1777 3.9165 12 4.64551C12.8223 3.9165 14.0348 3.25 15.7002 3.25C19.3938 3.25012 21.7499 6.68448 21.75 9.75977Z" fill="#2D3542"/>
</svg>
