<svg width="25" height="24" viewBox="0 0 25 24" fill="none" xmlns="http://www.w3.org/2000/svg">
<path d="M21.4999 17.25C21.9142 17.25 22.2499 17.5858 22.2499 18C22.2499 18.4142 21.9142 18.75 21.4999 18.75H3.49994C3.08573 18.75 2.74994 18.4142 2.74994 18C2.74994 17.5858 3.08573 17.25 3.49994 17.25H21.4999ZM15.4999 11.25C15.9142 11.25 16.2499 11.5858 16.2499 12C16.2499 12.4142 15.9142 12.75 15.4999 12.75H3.49994C3.08573 12.75 2.74994 12.4142 2.74994 12C2.74994 11.5858 3.08573 11.25 3.49994 11.25H15.4999ZM21.4999 5.25C21.9142 5.25 22.2499 5.58579 22.2499 6C22.2499 6.41421 21.9142 6.75 21.4999 6.75H3.49994C3.08573 6.75 2.74994 6.41421 2.74994 6C2.74994 5.58579 3.08573 5.25 3.49994 5.25H21.4999Z" fill="white"/>
</svg>
