<svg width="24" height="24" viewBox="0 0 24 24" fill="none" xmlns="http://www.w3.org/2000/svg">
<path fill-rule="evenodd" clip-rule="evenodd" d="M18.2419 15.2627C17.0929 15.2627 16.1235 14.4842 15.8414 13.4309H20.6423C20.3602 14.4842 19.3909 15.2627 18.2419 15.2627ZM5.75857 15.2627C4.60961 15.2627 3.64023 14.4842 3.35769 13.4309H8.15903C7.87696 14.4842 6.90754 15.2627 5.75857 15.2627ZM5.75857 6.41631L7.95583 12.1657H3.56107L5.75857 6.41631ZM20.4392 12.1657H16.0446L18.2419 6.41631L20.4392 12.1657ZM21.9582 12.5741L21.9586 12.5738L18.838 4.40836C18.7438 4.16241 18.5068 4 18.2419 4H5.75857C5.49362 4 5.25617 4.16237 5.16271 4.40836L2.04142 12.5738L2.04234 12.5741C2.01552 12.6437 2 12.7192 2 12.7982C2 14.8549 3.68608 16.5282 5.75857 16.5282C7.83065 16.5282 9.51673 14.8548 9.51673 12.7982C9.51673 12.7192 9.50167 12.6436 9.47485 12.5741L9.47531 12.5738L6.68215 5.26523H11.3625V18.7348H9.54267C9.19045 18.7348 8.90534 19.0179 8.90534 19.3673C8.90534 19.7168 9.19045 20 9.54267 20H14.4579C14.8101 20 15.0954 19.7168 15.0954 19.3673C15.0954 19.018 14.8101 18.7348 14.4579 18.7348H12.6376V5.26523H17.3184L14.5252 12.5738L14.5254 12.574C14.4988 12.6436 14.4837 12.7192 14.4837 12.7982C14.4837 14.8548 16.1693 16.5281 18.2418 16.5281C20.3139 16.5281 22 14.8548 22 12.7982C22 12.7192 21.9848 12.6437 21.9582 12.5741Z" fill="#2D3542"/>
</svg>
