<svg width="24" height="24" viewBox="0 0 24 24" fill="none" xmlns="http://www.w3.org/2000/svg">
<path d="M9.49023 20.0996C9.49002 20.0209 9.4244 19.9502 9.33496 19.9502C9.2457 19.9504 9.18088 20.021 9.18066 20.0996C9.18066 20.1784 9.24555 20.2498 9.33496 20.25C9.42455 20.25 9.49023 20.1785 9.49023 20.0996ZM16.7305 20.0996C16.7303 20.0209 16.6646 19.9502 16.5752 19.9502C16.486 19.9504 16.4211 20.021 16.4209 20.0996C16.4209 20.1784 16.4858 20.2498 16.5752 20.25C16.6648 20.25 16.7305 20.1785 16.7305 20.0996ZM4.18262 2.25C4.28246 2.25 4.39924 2.24909 4.50098 2.25684C4.58434 2.26319 4.68807 2.27715 4.80078 2.31348L4.91602 2.3584L5.06641 2.43946C5.16289 2.50114 5.2499 2.57661 5.3252 2.66309L5.42871 2.79981L5.49023 2.90821C5.54273 3.01488 5.57063 3.11648 5.58887 3.19825C5.61109 3.29796 5.6275 3.41359 5.6416 3.51172L5.97656 5.84961H20.2256C20.3623 5.84961 20.5134 5.84924 20.6416 5.86035C20.7426 5.86911 20.8752 5.88786 21.0156 5.94336L21.1582 6.0127L21.2471 6.06934C21.4205 6.19142 21.5588 6.35748 21.6475 6.55078L21.6875 6.64942L21.7295 6.80274C21.7582 6.95155 21.7515 7.0856 21.7412 7.18653C21.7347 7.25066 21.724 7.31988 21.7119 7.38965L21.6738 7.59571L20.4756 13.8496C20.3979 14.2551 20.3327 14.6002 20.2568 14.8809C20.198 15.0983 20.126 15.3066 20.0195 15.5039L19.9004 15.6973C19.6643 16.0382 19.3494 16.3164 18.9834 16.5078L18.8232 16.584C18.5408 16.7076 18.2535 16.757 17.9531 16.7793C17.6622 16.8009 17.3099 16.7998 16.8945 16.7998H9.14941C8.71293 16.7998 8.34316 16.8006 8.03906 16.7773C7.72574 16.7534 7.4259 16.7008 7.13379 16.5674C6.74187 16.3883 6.40184 16.1143 6.14551 15.7705L6.04102 15.6191C5.86795 15.3482 5.77526 15.0583 5.70898 14.752C5.64472 14.4549 5.59496 14.0901 5.53613 13.6602L4.58398 6.70215V6.70117L4.16016 3.75H3C2.58579 3.75 2.25 3.41422 2.25 3C2.25 2.58579 2.58579 2.25 3 2.25H4.18262ZM7.02246 13.457C7.08439 13.9097 7.12562 14.2072 7.1748 14.4346C7.222 14.6527 7.26552 14.7502 7.30469 14.8115L7.39551 14.9326C7.49431 15.0469 7.61733 15.1394 7.75684 15.2031L7.81543 15.2266C7.88375 15.2489 7.98488 15.2684 8.15332 15.2813C8.38712 15.2991 8.69015 15.2998 9.14941 15.2998H16.8945C17.3318 15.2998 17.6192 15.2997 17.8418 15.2832C18.0551 15.2674 18.1555 15.2389 18.2217 15.21L18.3516 15.1426C18.4763 15.066 18.5836 14.9641 18.667 14.8438L18.7324 14.7217C18.7558 14.6659 18.7809 14.5916 18.8086 14.4893C18.8664 14.2754 18.9211 13.9949 19.0029 13.5674L20.1934 7.34961H6.18652L7.02246 13.457ZM10.9902 20.0996C10.9902 21.0148 10.2451 21.75 9.33496 21.75C8.42502 21.7498 7.68066 21.0147 7.68066 20.0996C7.68088 19.1847 8.42515 18.4504 9.33496 18.4502C10.2449 18.4502 10.99 19.1846 10.9902 20.0996ZM18.2305 20.0996C18.2305 21.0148 17.4853 21.75 16.5752 21.75C15.6653 21.7498 14.9209 21.0147 14.9209 20.0996C14.9211 19.1847 15.6654 18.4504 16.5752 18.4502C17.4852 18.4502 18.2303 19.1846 18.2305 20.0996Z" fill="#2D3542"/>
</svg>
