<svg width="24" height="24" viewBox="0 0 24 24" fill="none" xmlns="http://www.w3.org/2000/svg">
<path d="M12 14.25C15.2966 14.25 18.2125 15.9145 20.0586 18.4668C20.3558 18.8777 20.7131 19.3231 20.7471 19.9121L20.75 20.0312C20.7453 20.2968 20.6672 20.5542 20.5674 20.7637C20.468 20.9721 20.317 21.197 20.1094 21.3672C19.8308 21.5955 19.5211 21.6811 19.2285 21.7178C18.9585 21.7516 18.6332 21.75 18.292 21.75H5.70801C5.36678 21.75 5.04152 21.7516 4.77148 21.7178C4.5156 21.6857 4.24675 21.616 3.99707 21.4463L3.89062 21.3672C3.68297 21.197 3.53196 20.9721 3.43262 20.7637C3.33278 20.5542 3.25465 20.2968 3.25 20.0312C3.23871 19.3824 3.6245 18.9049 3.9414 18.4668L4.11719 18.2295C5.96971 15.8116 8.80647 14.25 12 14.25ZM12 15.75C9.2275 15.75 6.74633 17.1473 5.15625 19.3457C4.96008 19.6169 4.85735 19.7625 4.79492 19.8789C4.74734 19.9676 4.74973 19.9915 4.75 20.0049C4.74995 20.0023 4.75057 20.0133 4.75683 20.0371C4.76305 20.0607 4.77319 20.089 4.78711 20.1182C4.801 20.1473 4.81597 20.1716 4.8291 20.1895C4.83378 20.1958 4.83715 20.201 4.83984 20.2041C4.85236 20.2092 4.88589 20.2205 4.95801 20.2295C5.11341 20.2489 5.32877 20.25 5.70801 20.25H18.292C18.6712 20.25 18.8866 20.2489 19.042 20.2295C19.1125 20.2207 19.146 20.2093 19.1592 20.2041C19.1619 20.201 19.166 20.1961 19.1709 20.1895C19.184 20.1716 19.199 20.1473 19.2129 20.1182C19.2268 20.089 19.2369 20.0607 19.2432 20.0371C19.2494 20.0133 19.25 20.0023 19.25 20.0049L19.2461 19.9707C19.241 19.9519 19.2292 19.9238 19.2051 19.8789C19.1426 19.7625 19.0399 19.6169 18.8437 19.3457C17.2537 17.1473 14.7725 15.75 12 15.75ZM15.5576 7.5C15.5576 5.39771 13.9343 3.75 12 3.75C10.0657 3.75 8.44238 5.39771 8.44238 7.5C8.44238 9.60229 10.0657 11.25 12 11.25C13.9343 11.25 15.5576 9.60229 15.5576 7.5ZM17.0576 7.5C17.0576 10.3683 14.8238 12.75 12 12.75C9.1762 12.75 6.94238 10.3683 6.94238 7.5C6.94238 4.63172 9.1762 2.25 12 2.25C14.8238 2.25 17.0576 4.63172 17.0576 7.5Z" fill="#2D3542"/>
</svg>
