<svg width="19" height="20" viewBox="0 0 19 20" fill="none" xmlns="http://www.w3.org/2000/svg">
<path d="M9.30333 16.8828C7.09181 16.1093 2.15021 12.8828 2.15021 7.414C2.15021 4.99994 4.04906 3.04681 6.39023 3.04681C7.77815 3.04681 9.00592 3.73431 9.77614 4.79681C10.5464 3.73431 11.7818 3.04681 13.1621 3.04681C15.5032 3.04681 17.4021 4.99994 17.4021 7.414C17.4021 12.8828 12.4605 16.1093 10.2489 16.8828C9.98967 16.9765 9.56261 16.9765 9.30333 16.8828Z" fill="#F24236"/>
<path d="M9.30333 16.8828L9.55837 16.1774L9.55093 16.1748L9.30333 16.8828ZM9.77614 4.79681L9.16891 5.237C9.30998 5.43161 9.53578 5.54681 9.77614 5.54681C10.0165 5.54681 10.2423 5.43161 10.3834 5.237L9.77614 4.79681ZM10.2489 16.8828L10.0013 16.1748L9.99392 16.1774L10.2489 16.8828ZM9.30333 16.8828L9.55093 16.1748C8.55477 15.8264 6.86846 14.8907 5.44047 13.3918C4.02199 11.9029 2.90021 9.90522 2.90021 7.414H2.15021H1.40021C1.40021 10.3915 2.74923 12.7415 4.35443 14.4264C5.95012 16.1014 7.84037 17.1657 9.05574 17.5907L9.30333 16.8828ZM2.15021 7.414H2.90021C2.90021 5.39341 4.48372 3.79681 6.39023 3.79681V3.04681V2.29681C3.61441 2.29681 1.40021 4.60647 1.40021 7.414H2.15021ZM6.39023 3.04681V3.79681C7.52199 3.79681 8.53023 4.35596 9.16891 5.237L9.77614 4.79681L10.3834 4.35662C9.48162 3.11267 8.03431 2.29681 6.39023 2.29681V3.04681ZM9.77614 4.79681L10.3834 5.237C11.0216 4.35659 12.0372 3.79681 13.1621 3.79681V3.04681V2.29681C11.5263 2.29681 10.0711 3.11203 9.16891 4.35662L9.77614 4.79681ZM13.1621 3.04681V3.79681C15.0686 3.79681 16.6521 5.39341 16.6521 7.414H17.4021H18.1521C18.1521 4.60647 15.9379 2.29681 13.1621 2.29681V3.04681ZM17.4021 7.414H16.6521C16.6521 9.90522 15.5303 11.9029 14.1118 13.3918C12.6838 14.8907 10.9975 15.8264 10.0014 16.1748L10.2489 16.8828L10.4965 17.5907C11.7119 17.1657 13.6022 16.1014 15.1978 14.4264C16.8031 12.7415 18.1521 10.3915 18.1521 7.414H17.4021ZM10.2489 16.8828L9.99392 16.1774C9.97145 16.1856 9.89264 16.2031 9.77614 16.2031C9.65964 16.2031 9.58083 16.1856 9.55836 16.1774L9.30333 16.8828L9.04831 17.5881C9.28512 17.6737 9.54948 17.7031 9.77614 17.7031C10.0028 17.7031 10.2672 17.6737 10.504 17.5881L10.2489 16.8828Z" fill="#F24236"/>
</svg>
